HIERARCHY
ROOT pelvis
{
  OFFSET 0 100 0
  CHANNELS 6 Xposition Yposition Zposition Zrotation Xrotation Yrotation
  JOINT pelvis_right_femur
  {
    OFFSET -10.78128 -3.44521 -0.5502486
    CHANNELS 3 Zrotation Xrotation Yrotation
    JOINT right_femur_tibia
    {
      OFFSET -0.8047443 -44.0398 -0.1307829
      CHANNELS 3 Zrotation Xrotation Yrotation
      JOINT right_tibia_foot
      {
        OFFSET 3.006224 -47.83518 -5
        CHANNELS 3 Zrotation Xrotation Yrotation
        End Site
        {
          OFFSET 0 -5 15
        }
      }
    }
  }
  JOINT pelvis_left_femur
  {
    OFFSET 10.78128 -3.44521 -0.5502486
    CHANNELS 3 Zrotation Xrotation Yrotation
    JOINT left_femur_tibia
    {
      OFFSET 0.8047443 -44.0398 -0.1307829
      CHANNELS 3 Zrotation Xrotation Yrotation
      JOINT left_tibia_foot
      {
        OFFSET -4.370144 -48.10324 -4.275266
        CHANNELS 3 Zrotation Xrotation Yrotation
        End Site
        {
          OFFSET 0 -5 15
        }
      }
    }
  }
  JOINT pelvis_spine1
  {
    OFFSET 0 6.468898 -3.129235
    CHANNELS 3 Zrotation Xrotation Yrotation
    JOINT spine1
    {
      OFFSET 0 23.15396 4.99043
      CHANNELS 3 Zrotation Xrotation Yrotation
      JOINT spine2
      {
        OFFSET 0 20.79997 -5.064912
        CHANNELS 3 Zrotation Xrotation Yrotation
        JOINT neck
        {
          OFFSET 0 14.38658 9.616178
          CHANNELS 3 Zrotation Xrotation Yrotation
          End Site
          {
            OFFSET 0 20 0
          }
        }
      }
      JOINT right_manubrium
      {
        OFFSET -5.722621 16.35077 3.967754
        CHANNELS 3 Zrotation Xrotation Yrotation
        JOINT right_clavicle
        {
          OFFSET -13.16364 1.694482 -4.693211
          CHANNELS 3 Zrotation Xrotation Yrotation
          JOINT right_humerus
          {
            OFFSET -28.5034 -0.3100689 -2.792744
            CHANNELS 3 Zrotation Xrotation Yrotation
            JOINT right_radius
            {
              OFFSET -25.15693 0.02248979 -1.271978
              CHANNELS 3 Zrotation Xrotation Yrotation
              End Site
              {
                OFFSET -15 0 0
              }
            }
          }
        }
      }
      JOINT left_manubrium
      {
        OFFSET 5.722621 16.35077 3.967754
        CHANNELS 3 Zrotation Xrotation Yrotation
        JOINT left_clavicle
        {
          OFFSET 13.16364 1.694482 -4.693211
          CHANNELS 3 Zrotation Xrotation Yrotation
          JOINT left_humerus
          {
            OFFSET 29.39168 -1.063119 -2.237045
            CHANNELS 3 Zrotation Xrotation Yrotation
            JOINT left_radius
            {
              OFFSET 24.59957 -0.9528479 0.9047498
              CHANNELS 3 Zrotation Xrotation Yrotation
              End Site
              {
                OFFSET 15 -0 -0
              }
            }
          }
        }
      }
    }
  }
}
MOTION
Frames: 23
Frame Time: 0.0416666666667
-1196.854 108.4331 2406.362 -5.216478 -1.787527 -80.68398 0.8821321 -24.09701 -0.9062259 -0 14.04253 -0 -1.133672 3.171671 -5.888992 -5.073731 14.59826 -7.484715 -0 14.63731 -0 -3.436438 -19.75611 14.40088 -0.01686133 -1.969445 3.524821 -0.8912067 11.33167 -6.235322 3.308377 22.84156 3.326621 0.372619 -17.92394 7.742391 -4.676235 -18.36985 8.932123 97.97937 18.8435 -21.87026 -0 0 8.171575 -19.30326 8.743579 9.152901 4.373471 -26.03595 -6.93223 -81.4245 19.09275 8.875027 0 0 -31.63687 5.695957 12.86752 9.716259
-1203.398 107.4715 2407.29 -4.191006 -1.587414 -80.37659 1.542917 -26.2691 -0.5130569 -0 9.442077 -0 -0.5278575 2.880943 -6.080049 -5.136943 16.62403 -7.189216 -0 17.83785 -0 -3.753711 -19.56991 13.7045 -0.05972264 -2.166249 3.344813 -0.5819817 11.22395 -6.445089 3.200908 22.97174 3.660857 0.6119825 -18.53129 7.826758 -4.823432 -18.09514 9.043953 98.30097 18.55125 -22.64488 -0 0 6.693711 -19.46127 8.323084 8.99589 4.695048 -26.55304 -6.824975 -81.23013 19.07591 7.843165 0 0 -32.66225 6.300294 13.0147 8.774914
-1210.318 106.8467 2408.173 -3.297296 -1.159687 -80.12998 2.67563 -27.12202 0.5090366 -0 7.581717 -0 -0.293326 2.845151 -6.140273 -4.987885 17.84937 -7.063463 -0 22.89326 -0 -4.353206 -18.26391 13.03484 -0.08225051 -2.222676 3.218145 -0.3160631 11.18406 -6.585788 3.083992 23.12018 3.93624 0.7900826 -18.99068 7.881062 -4.869314 -17.96224 9.185819 98.38339 18.17358 -23.01664 -0 0 5.757453 -19.55231 8.113065 8.893508 4.859913 -26.69481 -6.776256 -81.34813 19.26461 7.420712 0 0 -32.83992 6.602581 13.13862 8.150097
-1217.515 106.7842 2409.011 -2.607787 -0.4733931 -79.99027 4.20191 -26.35083 2.111582 -0 8.504466 -0 -0.5148198 2.391279 -6.102107 -4.544922 17.87944 -7.195555 -0 29.64272 -0 -5.464203 -15.8227 12.34341 -0.07999675 -2.140811 3.153773 -0.1204025 11.24593 -6.655271 2.984898 23.28739 4.103151 0.8831836 -19.27387 7.893198 -4.833429 -17.99183 9.34408 98.27713 17.72982 -22.97994 -0 0 5.393969 -19.60331 8.120758 8.846245 4.843264 -26.48477 -6.800022 -81.77358 19.64243 7.63664 0 0 -32.09087 6.589731 13.2657 7.898776
-1224.787 107.3795 2409.805 -2.235748 0.3195163 -80.04973 5.745831 -23.7995 3.92493 -0 11.31393 -0 -1.183517 0.9055332 -6.028245 -3.887295 16.38268 -7.511423 -0 37.53278 -0 -6.907838 -12.57386 11.79795 -0.06471139 -1.93283 3.149548 -0.007639933 11.38136 -6.644789 2.92647 23.47064 4.139425 0.8849011 -19.37679 7.866083 -4.739637 -18.16898 9.492763 98.00096 17.2572 -22.53465 -0 0 5.59584 -19.62798 8.301771 8.855986 4.670985 -25.94485 -6.858146 -82.47854 20.20057 8.421443 0 0 -30.44542 6.259587 13.38016 8.039792
-1231.883 108.5674 2410.555 -2.317526 0.9075939 -80.39792 6.836214 -19.79172 5.334318 -0 14.44413 -0 -2.354669 -1.548619 -5.860342 -3.279392 13.25782 -7.827825 -0 45.82908 -0 -7.963311 -9.256286 11.74096 -0.04530096 -1.6547 3.209322 0.0258812 11.54888 -6.556409 2.911063 23.63929 4.061233 0.8136384 -19.34669 7.807646 -4.62769 -18.48174 9.61493 97.59384 16.81127 -21.75403 -0 0 6.286479 -19.65455 8.579061 8.942789 4.408905 -25.17856 -6.899936 -83.39111 20.83665 9.652516 0 0 -28.19451 5.691488 13.45074 8.493517
-1238.579 110.1693 2411.275 -2.824495 1.009341 -81.02355 7.18329 -15.04516 5.813239 -0 16.38299 -0 -4.02425 -4.12811 -5.300069 -3.0012 8.490446 -8.06273 -0 53.65533 -0 -8.035082 -6.767828 12.2269 -0.006836593 -1.405508 3.356039 -0.003054235 11.7661 -6.420869 2.916996 23.73376 3.899986 0.6947867 -19.27097 7.712294 -4.554052 -18.97443 9.725788 97.14916 16.41804 -20.78999 -0 0 7.356366 -19.74248 8.908241 9.145361 4.107866 -24.38011 -6.924962 -84.42407 21.3392 11.27117 0 0 -25.80148 5.041297 13.48115 9.102514
-1244.784 111.9212 2412 -3.508081 0.5348606 -81.76881 6.714632 -10.08863 5.352922 -0 16.28473 -0 -5.558386 -6.125775 -4.192366 -3.057436 2.276024 -8.188828 -0 59.52465 -0 -7.477834 -5.594785 12.84726 0.07164773 -1.254802 3.614895 -0.07892391 12.0766 -6.271613 2.921692 23.70104 3.665249 0.531862 -19.19751 7.563204 -4.551735 -19.71959 9.849568 96.72585 16.06612 -19.73178 -0 0 8.793085 -19.92781 9.311623 9.501528 3.770802 -23.67006 -6.960504 -85.53608 21.55499 13.32291 0 0 -23.54244 4.391738 13.48542 9.789616
-1250.59 113.5153 2412.737 -4.236603 -0.3020675 -82.465 5.754827 -5.098721 4.667713 -0 14.55202 -0 -5.878929 -7.607394 -3.084946 -3.022948 -4.396371 -7.938869 -0 61.75706 -0 -7.081139 -5.423962 13.47331 0.1884473 -1.199697 3.994992 -0.197681 12.46236 -6.106728 2.915269 23.51455 3.354048 0.3158481 -19.09644 7.350661 -4.596333 -20.74222 9.985442 96.25775 15.75363 -18.52259 -0 0 10.71835 -20.18158 9.830454 10.03926 3.390574 -22.99396 -6.990416 -86.74272 21.49003 15.86968 0 0 -21.39389 3.67587 13.41545 10.62873
-1256.176 114.7026 2413.444 -5.128335 -1.067575 -83.09683 4.968023 -0.3529241 4.412967 -0 12.38067 -0 -4.894175 -8.802392 -2.695731 -2.416346 -10.14165 -7.00273 -0 59.8819 -0 -6.89906 -5.63089 14.53598 0.3262507 -1.203065 4.488174 -0.3596365 12.84344 -5.896637 2.888867 23.16579 2.987505 0.05599052 -18.91938 7.08169 -4.630885 -21.99887 10.11508 95.61023 15.50633 -17.06063 -0 0 13.24926 -20.44423 10.47388 10.77182 2.990272 -22.22834 -6.961007 -88.05937 21.21186 18.8909 0 0 -19.28507 2.800589 13.18177 11.70216
-1261.657 115.3449 2414.096 -6.181064 -1.453611 -83.74469 4.733914 3.793538 4.326822 -0 10.50241 -0 -3.902702 -9.789368 -2.87922 -1.218573 -14.46224 -5.558679 -0 54.59068 -0 -6.380684 -5.911585 16.12882 0.4738724 -1.23469 5.070152 -0.5587491 13.13811 -5.61656 2.829134 22.66432 2.617243 -0.2128362 -18.65958 6.778831 -4.608912 -23.39568 10.22535 94.69492 15.35312 -15.3273 -0 0 16.34631 -20.67088 11.21273 11.67638 2.616698 -21.31187 -6.839103 -89.44719 20.75429 22.24065 0 0 -17.28534 1.777671 12.73487 12.95886
-1267.063 115.4067 2414.727 -7.067137 -1.401877 -84.4481 4.962527 7.289792 3.861992 -0 9.084899 -0 -4.047042 -10.81134 -2.934162 0.2647989 -17.85298 -4.096569 -0 46.76207 -0 -5.231854 -6.091145 17.73552 0.6330537 -1.280288 5.69743 -0.7765831 13.31299 -5.272286 2.729544 22.05072 2.298061 -0.4498185 -18.36254 6.474241 -4.518526 -24.81104 10.31701 93.54351 15.30128 -13.43505 -0 0 19.75372 -20.84731 11.99749 12.67743 2.307356 -20.29118 -6.645883 -90.80569 20.12559 25.66075 0 0 -15.5648 0.7372775 12.12114 14.21529
-1272.421 114.9584 2415.412 -7.340571 -0.9870224 -85.17644 5.359107 10.25236 2.999904 -0 8.263126 -0 -5.273379 -12.19879 -2.452191 1.760288 -20.8104 -2.935476 -0 37.27584 -0 -3.629242 -5.889725 18.77066 0.8078994 -1.337455 6.311087 -0.9823836 13.39609 -4.90662 2.599847 21.39716 2.056687 -0.6336113 -18.10108 6.197867 -4.385534 -26.13352 10.40078 92.3056 15.32989 -11.58305 -0 0 23.07629 -20.98684 12.7767 13.67012 2.067713 -19.28986 -6.438332 -92.01938 19.35794 28.86395 0 0 -14.24627 -0.1569566 11.47284 15.26703
-1277.825 114.1663 2416.23 -6.797333 -0.365687 -85.87536 5.605706 12.66523 2.177189 -0 8.214916 -0 -6.61218 -13.94339 -1.560454 3.023488 -23.2029 -2.188058 -0 27.43207 -0 -2.052112 -5.149081 18.97087 0.9865865 -1.40391 6.854075 -1.145821 13.43071 -4.572114 2.46197 20.78693 1.88931 -0.7655192 -17.92909 5.96809 -4.25245 -27.28481 10.48281 91.15253 15.39155 -9.946358 -0 0 25.96792 -21.11163 13.48859 14.56391 1.887964 -18.41666 -6.252937 -93.02743 18.54964 31.62882 0 0 -13.29753 -0.8256337 10.9131 16.02034
-1283.394 113.2036 2417.213 -5.857375 0.2146571 -86.52519 5.503816 14.54094 1.714701 -0 8.925421 -0 -7.213388 -15.49353 -0.6942461 3.7361 -24.52562 -2.004342 -0 19.14976 -0 -1.101445 -4.205374 18.66449 1.138174 -1.464162 7.288035 -1.25767 13.41941 -4.293373 2.341056 20.29125 1.785137 -0.8509179 -17.84428 5.796363 -4.14769 -28.19761 10.55084 90.18201 15.4272 -8.611352 -0 0 28.25351 -21.22532 14.04775 15.29073 1.773032 -17.70055 -6.082326 -93.83314 17.86032 33.80974 0 0 -12.58631 -1.309652 10.47008 16.52652
-1289.176 112.1539 2418.307 -5.366727 0.5264299 -87.15681 5.102431 16.14361 1.440353 -0 10.1023 -0 -7.22234 -16.20653 -0.212219 3.684384 -24.6231 -2.553035 -0 14.00084 -0 -1.132505 -3.751789 18.59529 1.232839 -1.487809 7.592303 -1.338154 13.33584 -4.063352 2.259527 19.95635 1.739544 -0.8894309 -17.78757 5.69478 -4.067209 -28.79066 10.57944 89.42367 15.41346 -7.61476 -0 0 29.88113 -21.29684 14.38163 15.78676 1.73492 -17.12323 -5.917678 -94.43306 17.43993 35.28997 0 0 -12.03944 -1.689378 10.1039 16.89813
-1295.147 111.0675 2419.424 -5.619584 0.5501189 -87.8055 4.57318 17.63032 1.092219 -0 11.41946 -0 -7.17233 -15.96879 -0.09960065 3.044806 -23.9441 -3.645645 -0 11.84774 -0 -1.899314 -4.062041 19.07953 1.265176 -1.45277 7.764704 -1.415676 13.18323 -3.871654 2.226957 19.78818 1.743719 -0.8853581 -17.69399 5.665547 -3.987292 -29.02441 10.55673 88.88352 15.38396 -6.973194 -0 0 30.86926 -21.28965 14.49458 16.02074 1.761823 -16.67828 -5.781934 -94.79533 17.32938 36.03696 0 0 -11.68505 -1.998679 9.787685 17.20641
-1301.279 110.0194 2420.502 -6.198366 0.4245978 -88.47497 4.01216 18.90013 0.705303 -0 12.75933 -0 -7.163527 -15.10854 -0.104488 2.192495 -23.08198 -4.84575 -0 11.38627 -0 -2.86009 -4.810685 19.83238 1.252381 -1.36379 7.826843 -1.502538 12.9985 -3.716537 2.235429 19.75125 1.779402 -0.8537014 -17.54032 5.692874 -3.891655 -28.9543 10.49417 88.54198 15.38353 -6.650847 -0 0 31.32632 -21.19929 14.46073 16.02917 1.821582 -16.36405 -5.701006 -94.91862 17.45324 36.17183 0 0 -11.5494 -2.23479 9.523713 17.46655
-1307.562 109.068 2421.519 -6.745956 0.2492348 -89.14884 3.432855 19.88716 0.3984866 -0 14.20227 -0 -7.104559 -13.88364 -0.07875414 1.3316 -22.31315 -5.913911 -0 11.65212 -0 -3.697226 -5.661293 20.5767 1.211473 -1.235498 7.806309 -1.598557 12.80732 -3.595513 2.272609 19.80481 1.831441 -0.8088045 -17.33147 5.759125 -3.776923 -28.66326 10.4059 88.35944 15.43113 -6.579235 -0 0 31.38905 -21.04002 14.34677 15.87131 1.891329 -16.16285 -5.677898 -94.83725 17.72538 35.85544 0 0 -11.61206 -2.400548 9.313001 17.68064
-1313.99 108.2464 2422.469 -7.200845 0.04374352 -89.80532 2.823601 20.59294 0.2190476 -0 15.93012 -0 -6.964376 -12.30497 -0.01941273 0.4847784 -21.60652 -6.824924 -0 12.31736 -0 -4.326271 -6.500552 21.23335 1.148863 -1.076704 7.720173 -1.701147 12.61156 -3.503557 2.331439 19.92665 1.893756 -0.7578409 -17.07478 5.855985 -3.644774 -28.19994 10.29694 88.3009 15.52608 -6.70414 -0 0 31.14951 -20.82311 14.17936 15.58455 1.965404 -16.05123 -5.701294 -94.58444 18.10562 35.18266 0 0 -11.83806 -2.508796 9.147441 17.85481
-1320.557 107.5903 2423.354 -7.600781 -0.1998565 -90.41726 2.173354 20.98656 0.1833294 -0 18.167 -0 -6.743748 -10.26371 0.03318669 -0.3737787 -20.82715 -7.600388 -0 13.30724 -0 -4.717833 -7.305021 21.78206 1.065724 -0.8930973 7.575863 -1.806882 12.40625 -3.438665 2.408563 20.10668 1.964123 -0.7047557 -16.77621 5.980589 -3.498414 -27.58694 10.16793 88.34761 15.66481 -6.997276 -0 0 30.65318 -20.55551 13.96633 15.18792 2.044497 -16.01569 -5.759789 -94.17633 18.57643 34.1924 0 0 -12.20583 -2.56785 9.021749 17.9905
-1327.254 107.1502 2424.184 -7.980467 -0.4882883 -90.94806 1.486016 20.96171 0.3055873 -0 21.14933 -0 -6.441747 -7.634101 0.03213428 -1.259815 -19.81799 -8.242111 -0 14.58531 -0 -4.832223 -8.056911 22.18991 0.9623315 -0.6911776 7.373939 -1.910959 12.18973 -3.404759 2.50214 20.33982 2.040243 -0.6535367 -16.44219 6.131762 -3.34253 -26.83503 10.01882 88.49915 15.84885 -7.454013 -0 0 29.91042 -20.24193 13.71217 14.69124 2.128986 -16.0589 -5.847241 -93.60952 19.12174 32.88932 0 0 -12.71637 -2.573904 8.941048 18.07808
-1334.051 106.9891 2424.976 -8.352131 -0.8149469 -91.34925 0.7950645 20.32095 0.5902388 -0 25.07391 -0 -6.049481 -4.346251 -0.07548892 -2.163837 -18.40898 -8.726324 -0 16.0698 -0 -4.625478 -8.733152 22.40326 0.8398127 -0.4811147 7.110601 -2.006555 11.96602 -3.411701 2.610727 20.62183 2.118263 -0.6091888 -16.08313 6.308003 -3.185353 -25.95316 9.850252 88.77137 16.08502 -8.086689 -0 0 28.90787 -19.88769 13.42225 14.10242 2.217702 -16.19973 -5.961742 -92.86609 19.71689 31.2603 0 0 -13.39125 -2.509817 8.922364 18.09544
